<svg xmlns="http://www.w3.org/2000/svg" version="1.1" xmlns:xlink="http://www.w3.org/1999/xlink" xmlns:svgjs="http://svgjs.com/svgjs" width="256" height="256"><svg xmlns:dc="http://purl.org/dc/elements/1.1/" xmlns:cc="http://creativecommons.org/ns#" xmlns:rdf="http://www.w3.org/1999/02/22-rdf-syntax-ns#" xmlns:svg="http://www.w3.org/2000/svg" xmlns="http://www.w3.org/2000/svg" xmlns:sodipodi="http://sodipodi.sourceforge.net/DTD/sodipodi-0.dtd" xmlns:inkscape="http://www.inkscape.org/namespaces/inkscape" width="256" height="256" id="SvgjsSvg1034" version="1.1" inkscape:version="0.91 r" sodipodi:docname="client.svg" inkscape:export-filename="C:\Users\julio\Desktop\sistemas\sistemas\desarrollo\cartonnet\arte\iconpack\client.png" inkscape:export-xdpi="35.630001" inkscape:export-ydpi="35.630001">
  <defs id="SvgjsDefs1033">
    <clipPath id="SvgjsClipPath1032" clipPathUnits="userSpaceOnUse">
      <path id="SvgjsPath1031" d="m 24.3333,46.0004 26.1669,0 0,-23.0004 -26.1669,0 0,23.0004 z" inkscape:connector-curvature="0"></path>
    </clipPath>
    <clipPath id="SvgjsClipPath1030" clipPathUnits="userSpaceOnUse">
      <path id="SvgjsPath1029" d="m 18,43 28,0 0,-28 -28,0 0,28 z" inkscape:connector-curvature="0"></path>
    </clipPath>
    <clipPath id="SvgjsClipPath1028" clipPathUnits="userSpaceOnUse">
      <path id="SvgjsPath1027" d="M 0,64 64,64 64,0 0,0 0,64 Z" inkscape:connector-curvature="0"></path>
    </clipPath>
    <clipPath id="SvgjsClipPath1026" clipPathUnits="userSpaceOnUse">
      <path id="SvgjsPath1025" d="m 24.3333,46.0004 26.1669,0 0,-23.0004 -26.1669,0 0,23.0004 z" inkscape:connector-curvature="0"></path>
    </clipPath>
    <clipPath id="SvgjsClipPath1024" clipPathUnits="userSpaceOnUse">
      <path id="SvgjsPath1023" d="m 18,43 28,0 0,-28 -28,0 0,28 z" inkscape:connector-curvature="0"></path>
    </clipPath>
    <clipPath id="SvgjsClipPath1022" clipPathUnits="userSpaceOnUse">
      <path id="SvgjsPath1021" d="M 0,64 64,64 64,0 0,0 0,64 Z" inkscape:connector-curvature="0"></path>
    </clipPath>
    <clipPath id="SvgjsClipPath1020" clipPathUnits="userSpaceOnUse">
      <path id="SvgjsPath1019" d="m 12.2873,54 39.4254,0 0,-48 -39.4254,0 0,48 z" inkscape:connector-curvature="0"></path>
    </clipPath>
    <clipPath id="SvgjsClipPath1018" clipPathUnits="userSpaceOnUse">
      <path id="SvgjsPath1017" d="M 0,64 64,64 64,0 0,0 0,64 Z" inkscape:connector-curvature="0"></path>
    </clipPath>
    <clipPath id="SvgjsClipPath1016" clipPathUnits="userSpaceOnUse">
      <path inkscape:connector-curvature="0" id="SvgjsPath1015" d="M 0,64 64,64 64,0 0,0 0,64 Z"></path>
    </clipPath>
    <clipPath id="SvgjsClipPath1014" clipPathUnits="userSpaceOnUse">
      <path inkscape:connector-curvature="0" id="SvgjsPath1013" d="m 9,44.3637 46,0 L 55,16 9,16 9,44.3637 Z"></path>
    </clipPath>
  </defs>
  <sodipodi:namedview id="SvgjsSodipodi:namedview1012" pagecolor="#ffffff" bordercolor="#666666" borderopacity="1.0" inkscape:pageopacity="0.0" inkscape:pageshadow="2" inkscape:zoom="1.4479167" inkscape:cx="49.074498" inkscape:cy="44.010785" inkscape:document-units="px" inkscape:current-layer="layer1" showgrid="false" showborder="true" inkscape:window-width="1366" inkscape:window-height="716" inkscape:window-x="-8" inkscape:window-y="22" inkscape:window-maximized="1"></sodipodi:namedview>
  <metadata id="SvgjsMetadata1011">
    <rdf:rdf>
      <cc:work rdf:about="">
        <dc:format>image/svg+xml</dc:format>
        <dc:type rdf:resource="http://purl.org/dc/dcmitype/StillImage"></dc:type>
        <dc:title></dc:title>
      </cc:work>
    </rdf:rdf>
  </metadata>
  <g inkscape:label="Capa 1" inkscape:groupmode="layer" id="SvgjsG1010" transform="translate(0,-796.3622)">
    <g id="SvgjsG1009" transform="matrix(5.3333333,0,0,5.3333333,0,-4560.2362)">
      <path inkscape:connector-curvature="0" d="m 48,1028.3622 c 0,13.2548 -10.74525,24 -24,24 -13.25475,0 -24,-10.7452 -24,-24 0,-13.2547 10.74525,-24 24,-24 13.25475,0 24,10.7453 24,24" style="fill:#76c2af;fill-opacity:1;fill-rule:nonzero;stroke:none" id="SvgjsPath1008"></path>
      <g transform="matrix(0.75,0,0,-0.75,0,1052.3622)" id="SvgjsG1007"></g>
      <g transform="matrix(0.75,0,0,-0.75,0,1052.3622)" id="SvgjsG1006">
        <g style="opacity:0.19999701" clip-path="url(#clipPath5549)" id="SvgjsG1005">
          <g transform="translate(43.9048,16.457)" id="SvgjsG1004"></g>
        </g>
      </g>
      <path inkscape:connector-curvature="0" id="SvgjsPath1003" transform="translate(0,1004.3622)" d="m 23.474609,5.8710938 c -4.672555,0 -8.459001,3.7863843 -8.458984,8.4589842 3e-6,0.8149 0.379751,3.087603 1.201172,4.345703 0,0 3.086104,2.822969 7.25,6.541016 -3.653525,0.02761 -7.625454,0.04392 -10.644531,2.029297 -2.147453,1.4123 -3.768058,3.902628 -4.2675785,6.423828 -0.3950273,1.9938 -1.9711036,4.449169 1.1835937,5.980469 1.2895508,0.625911 5.6516558,4.150193 10.6542968,8.078125 C 21.569556,47.905992 22.773524,48 24,48 36.736974,48 47.15069,38.0756 47.945312,25.539062 38.86939,16.79164 27.410156,6.8398438 27.410156,6.8398438 26.2326,6.1783437 24.18889,5.8710938 23.474609,5.8710938 Z" style="opacity:1;fill:#000000;fill-opacity:0.19607843;stroke:none;stroke-width:1;stroke-miterlimit:4;stroke-dasharray:none;stroke-opacity:1"></path>
      <circle r="8.4604311" cy="1018.6931" cx="23.475243" id="SvgjsCircle1002" style="opacity:1;fill:#ffffff;fill-opacity:1;stroke:none;stroke-width:1;stroke-miterlimit:4;stroke-dasharray:none;stroke-opacity:1"></circle>
      <path sodipodi:nodetypes="asssaaaaa" inkscape:connector-curvature="0" id="SvgjsPath1001" d="m 39.604738,1038.0312 c 0.319987,2.0158 1.700566,4.4269 -1.386392,5.9641 -3.086958,1.5371 -9.299315,2.4964 -14.138787,2.4964 -4.839472,0 -11.187308,-0.9475 -14.3420049,-2.4787 -3.1546973,-1.5313 -1.5782008,-3.988 -1.1831735,-5.9818 0.4995205,-2.5212 2.1197664,-5.0099 4.2672194,-6.4222 3.186388,-2.0954 7.444473,-2.0018 11.257959,-2.0382 3.896665,-0.037 8.311337,-0.3174 11.541153,1.8629 2.129303,1.4373 3.581256,4.0602 3.984026,6.5975 z" style="opacity:1;fill:#ffffff;fill-opacity:1;stroke:none;stroke-width:1;stroke-miterlimit:4;stroke-dasharray:none;stroke-opacity:1"></path>
      <path inkscape:connector-curvature="0" d="m 24,1046.2671 -3.367641,-4.7756 3.367641,-8.058 3.367641,8.058 z m 0,-11.9648 -3.367641,-4.7756 6.735282,0 z" style="opacity:1;fill:#4f5d73;fill-opacity:1;stroke:none;stroke-width:1;stroke-miterlimit:4;stroke-dasharray:none;stroke-opacity:1" id="SvgjsPath1000"></path>
    </g>
  </g>
</svg><style>@media (prefers-color-scheme: light) { :root { filter: none; } }
</style></svg>